<svg width="42" height="42" viewBox="0 0 42 42" fill="none" xmlns="http://www.w3.org/2000/svg">
<path d="M21 38.5C11.335 38.5 3.5 30.665 3.5 21C3.5 11.335 11.335 3.5 21 3.5C30.665 3.5 38.5 11.335 38.5 21C38.4894 30.6606 30.6606 38.4894 21 38.5ZM7 21.301C7.0828 29.0032 13.3719 35.1917 21.0744 35.1505C28.7769 35.1089 34.9992 28.8531 34.9992 21.1505C34.9992 13.4479 28.7769 7.1921 21.0744 7.1505C13.3719 7.1093 7.0828 13.2978 7 21V21.301ZM22.75 29.75H19.25V22.75H12.25V19.25H19.25V12.25H22.75V19.25H29.75V22.75H22.75V29.75Z" fill="#484848"/>
</svg>
