<svg width="50" height="50" viewBox="0 0 50 50" fill="none" xmlns="http://www.w3.org/2000/svg">
<path d="M39.5833 45.8334H10.4167C8.11548 45.8334 6.25 43.9679 6.25 41.6667V12.5C6.25 10.1988 8.11548 8.33335 10.4167 8.33335H14.5833V4.16669H18.75V8.33335H31.25V4.16669H35.4167V8.33335H39.5833C41.8845 8.33335 43.75 10.1988 43.75 12.5V41.6667C43.75 43.9679 41.8845 45.8334 39.5833 45.8334ZM10.4167 20.8334V41.6667H39.5833V20.8334H10.4167ZM10.4167 12.5V16.6667H39.5833V12.5H10.4167ZM20.2208 38.9729L17.2771 36.0271L22.0542 31.25L17.2771 26.4729L20.2229 23.5271L25 28.3042L29.7771 23.5292L32.7229 26.475L27.9458 31.25L32.7229 36.0271L29.7792 38.9709L25 34.1959L20.2229 38.9729H20.2208Z" fill="#2E3A59"/>
</svg>
