<svg width="50" height="50" viewBox="0 0 50 50" fill="none" xmlns="http://www.w3.org/2000/svg">
<path d="M47 8.35725C47 7.20163 46.5364 6.09335 45.7113 5.27621C44.8861 4.45907 43.767 4 42.6 4H12.2889C11.1219 4 10.0028 4.45907 9.17762 5.27621C8.35246 6.09335 7.88889 7.20163 7.88889 8.35725V8.84139H7.4C6.23305 8.84139 5.11389 9.30045 4.28873 10.1176C3.46357 10.9347 3 12.043 3 13.1986V33.0483C3 33.6205 3.11381 34.1871 3.33493 34.7158C3.55605 35.2444 3.88015 35.7248 4.28873 36.1294C4.69731 36.534 5.18236 36.8549 5.71619 37.0739C6.25003 37.2929 6.82218 37.4056 7.4 37.4056H14.5427L21.436 45.4858C21.5737 45.647 21.7452 45.7764 21.9385 45.8652C22.1319 45.954 22.3424 46 22.5556 46C22.7687 46 22.9792 45.954 23.1726 45.8652C23.3659 45.7764 23.5374 45.647 23.6751 45.4858L30.5684 37.4056H37.7111C38.2889 37.4056 38.8611 37.2929 39.3949 37.0739C39.9287 36.8549 40.4138 36.534 40.8224 36.1294C41.231 35.7248 41.5551 35.2444 41.7762 34.7158C41.9973 34.1871 42.1111 33.6205 42.1111 33.0483V32.5642H42.6C43.767 32.5642 44.8861 32.1051 45.7113 31.288C46.5364 30.4708 47 29.3626 47 28.2069V8.35725ZM39.1778 33.0483C39.1778 33.4335 39.0233 33.803 38.7482 34.0753C38.4731 34.3477 38.1001 34.5007 37.7111 34.5007H29.8889C29.6758 34.5006 29.4653 34.5465 29.272 34.6351C29.0786 34.7237 28.9071 34.853 28.7693 35.0139L22.5556 42.3002L16.3418 35.0381C16.2063 34.8728 16.0359 34.7389 15.8424 34.6461C15.6489 34.5532 15.4372 34.5036 15.2222 34.5007H7.4C7.01102 34.5007 6.63796 34.3477 6.36291 34.0753C6.08786 33.803 5.93333 33.4335 5.93333 33.0483V13.1986C5.93333 12.8134 6.08786 12.444 6.36291 12.1716C6.63796 11.8992 7.01102 11.7462 7.4 11.7462H37.7111C38.1001 11.7462 38.4731 11.8992 38.7482 12.1716C39.0233 12.444 39.1778 12.8134 39.1778 13.1986V33.0483ZM44.0667 28.2069C44.0667 28.5921 43.9121 28.9616 43.6371 29.234C43.362 29.5063 42.989 29.6594 42.6 29.6594H42.1111V13.1986C42.1111 12.043 41.6475 10.9347 40.8224 10.1176C39.9972 9.30045 38.8781 8.84139 37.7111 8.84139H10.8222V8.35725C10.8222 7.97204 10.9767 7.60262 11.2518 7.33024C11.5269 7.05785 11.8999 6.90483 12.2889 6.90483H42.6C42.989 6.90483 43.362 7.05785 43.6371 7.33024C43.9121 7.60262 44.0667 7.97204 44.0667 8.35725V28.2069Z" fill="#484848"/>
</svg>
