<svg width="50" height="50" viewBox="0 0 50 50" fill="none" xmlns="http://www.w3.org/2000/svg">
<path d="M25 45.8334C13.494 45.8334 4.16663 36.506 4.16663 25C4.16663 13.4941 13.494 4.16669 25 4.16669C36.5059 4.16669 45.8333 13.4941 45.8333 25C45.8207 36.5007 36.5007 45.8207 25 45.8334ZM25 8.33335C15.7952 8.33335 8.33329 15.7953 8.33329 25C8.33329 34.2048 15.7952 41.6667 25 41.6667C34.2047 41.6667 41.6666 34.2048 41.6666 25C41.6563 15.7996 34.2004 8.34369 25 8.33335ZM35.4166 27.0834H22.9166V14.5834H27.0833V22.9167H35.4166V27.0834Z" fill="#2E3A59"/>
</svg>
