<svg width="72" height="72" viewBox="0 0 72 72" fill="none" xmlns="http://www.w3.org/2000/svg">
<circle cx="36" cy="36" r="36" fill="#484848"/>
<path d="M36.0001 18.2923C41.7675 18.2923 42.4506 18.3143 44.7283 18.4182C46.8343 18.5142 47.978 18.8661 48.7391 19.1619C49.7473 19.5538 50.4669 20.0218 51.2227 20.7776C51.9786 21.5335 52.4466 22.2531 52.8385 23.2613C53.1343 24.0224 53.4861 25.1661 53.5822 27.2721C53.6861 29.5497 53.7081 30.2329 53.7081 36.0003C53.7081 41.7677 53.6861 42.4509 53.5822 44.7285C53.4861 46.8345 53.1343 47.9782 52.8385 48.7393C52.4466 49.7476 51.9786 50.4671 51.2228 51.2229C50.4669 51.9788 49.7473 52.4469 48.7391 52.8387C47.978 53.1345 46.8343 53.4864 44.7283 53.5824C42.451 53.6863 41.7679 53.7084 36.0001 53.7084C30.2322 53.7084 29.5491 53.6863 27.2718 53.5824C25.1658 53.4864 24.0221 53.1345 23.261 52.8387C22.2527 52.4469 21.5332 51.9788 20.7774 51.2229C20.0216 50.4671 19.5534 49.7476 19.1616 48.7393C18.8658 47.9782 18.5139 46.8345 18.4179 44.7285C18.3139 42.4509 18.2919 41.7677 18.2919 36.0003C18.2919 30.2329 18.3139 29.5497 18.4179 27.2721C18.5139 25.1661 18.8658 24.0224 19.1616 23.2613C19.5534 22.2531 20.0215 21.5335 20.7774 20.7777C21.5332 20.0218 22.2527 19.5538 23.261 19.1619C24.0221 18.8661 25.1658 18.5142 27.2718 18.4182C29.5494 18.3143 30.2326 18.2923 36.0001 18.2923ZM36.0001 14.4004C30.1338 14.4004 29.3982 14.4253 27.0944 14.5304C24.7953 14.6352 23.2251 15.0004 21.8512 15.5343C20.4308 16.0863 19.2262 16.8249 18.0253 18.0257C16.8245 19.2266 16.086 20.4312 15.534 21.8515C15 23.2255 14.6349 24.7956 14.53 27.0947C14.4249 29.3986 14.4 30.1341 14.4 36.0003C14.4 41.8665 14.4249 42.6021 14.53 44.9059C14.6349 47.205 15 48.7752 15.534 50.1491C16.086 51.5695 16.8245 52.7741 18.0253 53.9749C19.2262 55.1757 20.4308 55.9143 21.8512 56.4662C23.2251 57.0002 24.7953 57.3654 27.0944 57.4703C29.3982 57.5754 30.1338 57.6002 36.0001 57.6002C41.8662 57.6002 42.6018 57.5754 44.9057 57.4703C47.2047 57.3654 48.7749 57.0002 50.1488 56.4662C51.5692 55.9143 52.7738 55.1757 53.9747 53.9749C55.1755 52.7741 55.9141 51.5695 56.4661 50.1491C57 48.7752 57.3652 47.205 57.47 44.9059C57.5752 42.6021 57.6 41.8665 57.6 36.0003C57.6 30.1341 57.5752 29.3986 57.47 27.0947C57.3652 24.7956 57 23.2255 56.4661 21.8515C55.9141 20.4312 55.1755 19.2266 53.9747 18.0257C52.7738 16.8249 51.5692 16.0863 50.1488 15.5343C48.7749 15.0004 47.2047 14.6352 44.9057 14.5304C42.6018 14.4253 41.8662 14.4004 36.0001 14.4004Z" fill="white"/>
<path d="M36.0101 24.918C29.8841 24.918 24.9182 29.8839 24.9182 36.0098C24.9182 42.1357 29.8841 47.1017 36.0101 47.1017C42.136 47.1017 47.1019 42.1357 47.1019 36.0098C47.1019 29.8839 42.136 24.918 36.0101 24.918ZM36.0101 43.2098C32.0336 43.2098 28.81 39.9863 28.81 36.0098C28.81 32.0334 32.0336 28.8098 36.0101 28.8098C39.9865 28.8098 43.21 32.0334 43.21 36.0098C43.21 39.9863 39.9865 43.2098 36.0101 43.2098Z" fill="white"/>
<path d="M50.1315 24.4729C50.1315 25.9044 48.9709 27.0649 47.5394 27.0649C46.108 27.0649 44.9474 25.9044 44.9474 24.4729C44.9474 23.0414 46.108 21.8809 47.5394 21.8809C48.9709 21.8809 50.1315 23.0414 50.1315 24.4729Z" fill="white"/>
</svg>
