<svg width="28" height="28" viewBox="0 0 28 28" fill="none" xmlns="http://www.w3.org/2000/svg">
<path d="M14 2.52252C17.7382 2.52252 18.181 2.5368 19.6572 2.60415C21.0222 2.6664 21.7635 2.89447 22.2568 3.0862C22.9103 3.34016 23.3767 3.64354 23.8665 4.13342C24.3565 4.62335 24.6598 5.08972 24.9138 5.7432C25.1055 6.23652 25.3336 6.97781 25.3958 8.3428C25.4632 9.81904 25.4775 10.2618 25.4775 14C25.4775 17.7382 25.4632 18.181 25.3958 19.6572C25.3336 21.0222 25.1055 21.7635 24.9138 22.2568C24.6598 22.9103 24.3565 23.3767 23.8666 23.8665C23.3767 24.3565 22.9103 24.6598 22.2568 24.9138C21.7635 25.1055 21.0222 25.3336 19.6572 25.3958C18.1812 25.4632 17.7384 25.4775 14 25.4775C10.2616 25.4775 9.81888 25.4632 8.3428 25.3958C6.97781 25.3336 6.23652 25.1055 5.7432 24.9138C5.08972 24.6598 4.62335 24.3565 4.13347 23.8665C3.64359 23.3767 3.34016 22.9103 3.0862 22.2568C2.89447 21.7635 2.6664 21.0222 2.60415 19.6572C2.5368 18.181 2.52252 17.7382 2.52252 14C2.52252 10.2618 2.5368 9.81904 2.60415 8.3428C2.6664 6.97781 2.89447 6.23652 3.0862 5.7432C3.34016 5.08972 3.64354 4.62335 4.13347 4.13347C4.62335 3.64354 5.08972 3.34016 5.7432 3.0862C6.23652 2.89447 6.97781 2.6664 8.3428 2.60415C9.81904 2.5368 10.2618 2.52252 14 2.52252ZM14 0C10.1978 0 9.72107 0.0161162 8.22782 0.0842488C6.73768 0.152215 5.71997 0.3889 4.82947 0.734954C3.90884 1.09273 3.1281 1.57144 2.34974 2.34974C1.57144 3.1281 1.09273 3.90884 0.73501 4.82947C0.3889 5.71997 0.152215 6.73768 0.0842488 8.22782C0.0161162 9.72107 0 10.1978 0 14C0 17.8022 0.0161162 18.2789 0.0842488 19.7722C0.152215 21.2623 0.3889 22.28 0.73501 23.1705C1.09273 24.0912 1.57144 24.8719 2.34974 25.6503C3.1281 26.4286 3.90884 26.9073 4.82947 27.265C5.71997 27.6111 6.73768 27.8478 8.22782 27.9158C9.72107 27.9839 10.1978 28 14 28C17.8022 28 18.2789 27.9839 19.7722 27.9158C21.2623 27.8478 22.28 27.6111 23.1705 27.265C24.0912 26.9073 24.8719 26.4286 25.6503 25.6503C26.4286 24.8719 26.9073 24.0912 27.265 23.1705C27.6111 22.28 27.8478 21.2623 27.9158 19.7722C27.9839 18.2789 28 17.8022 28 14C28 10.1978 27.9839 9.72107 27.9158 8.22782C27.8478 6.73768 27.6111 5.71997 27.265 4.82947C26.9073 3.90884 26.4286 3.1281 25.6503 2.34974C24.8719 1.57144 24.0912 1.09273 23.1705 0.734954C22.28 0.3889 21.2623 0.152215 19.7722 0.0842488C18.2789 0.0161162 17.8022 0 14 0Z" fill="#484848"/>
<path d="M14.0064 6.81543C10.0359 6.81543 6.8172 10.0341 6.8172 14.0046C6.8172 17.9751 10.0359 21.1938 14.0064 21.1938C17.9769 21.1938 21.1956 17.9751 21.1956 14.0046C21.1956 10.0341 17.9769 6.81543 14.0064 6.81543ZM14.0064 18.6713C11.429 18.6713 9.33972 16.582 9.33972 14.0046C9.33972 11.4273 11.429 9.33795 14.0064 9.33795C16.5837 9.33795 18.6731 11.4273 18.6731 14.0046C18.6731 16.582 16.5837 18.6713 14.0064 18.6713Z" fill="#484848"/>
<path d="M23.1593 6.53C23.1593 7.45772 22.4071 8.20985 21.4792 8.20985C20.5514 8.20985 19.7993 7.45772 19.7993 6.53C19.7993 5.60222 20.5514 4.8501 21.4792 4.8501C22.4071 4.8501 23.1593 5.60222 23.1593 6.53Z" fill="#484848"/>
</svg>
