<svg width="150" height="33" viewBox="0 0 150 33" fill="none" xmlns="http://www.w3.org/2000/svg">
<g clip-path="url(#clip0)">
<path d="M-0.000183105 32.5177V28.1767L0.680756 28.4321C0.990274 28.5481 1.29205 28.6487 1.57836 28.7338C1.81823 28.8035 2.0349 28.8422 2.22834 28.8422C2.67715 28.8422 2.97892 28.7416 3.13368 28.5481C3.20333 28.463 3.41999 28.0838 3.41999 26.7607V10.333H8.07049V26.9232C8.07049 28.8576 7.54431 30.382 6.50743 31.4421C5.92708 32.0302 5.22293 32.4635 4.38723 32.7266C3.35035 33.0593 2.22834 33.0593 1.16825 32.804L-0.000183105 32.5177Z" fill="black"/>
<path d="M21.6275 11.2693C21.109 10.8515 20.4823 10.4878 19.7549 10.2015C18.9656 9.88425 18.1145 9.72949 17.2246 9.72949C15.708 9.72949 14.3693 10.07 13.2318 10.7354C12.0866 11.4086 11.1967 12.3604 10.5854 13.5675C9.98188 14.7514 9.67236 16.1442 9.67236 17.7073C9.67236 19.3013 10.0283 20.7174 10.717 21.9245C11.4134 23.1316 12.3574 24.0756 13.5259 24.7256C14.6865 25.3756 15.971 25.7083 17.3407 25.7083C18.5942 25.7083 19.7472 25.3911 20.7608 24.772C21.0858 24.5709 21.3799 24.3619 21.643 24.1375L21.6739 25.4066H26.1232V10.0932H21.643L21.6275 11.2693ZM20.8382 15.7109C21.1477 16.299 21.3025 16.9722 21.3025 17.7305V17.9394C21.3025 19.0537 20.9775 19.9281 20.3198 20.6013C19.662 21.2745 18.865 21.5995 17.8901 21.5995C16.7758 21.5995 15.9633 21.2668 15.3984 20.5858C14.8026 19.8662 14.5086 18.9299 14.5086 17.7305C14.5086 16.5544 14.8026 15.6258 15.4062 14.9062C15.9865 14.2252 16.7913 13.8925 17.8901 13.8925C18.5168 13.8925 19.074 14.0473 19.5924 14.3645C20.1263 14.6895 20.5287 15.1306 20.8382 15.7109Z" fill="black"/>
<path d="M33.3039 4.45215H28.6843V25.391H33.3039V4.45215Z" fill="black"/>
<path d="M46.9148 11.2693C46.3964 10.8515 45.7696 10.4878 45.0422 10.2015C44.253 9.88425 43.4018 9.72949 42.5119 9.72949C40.9953 9.72949 39.6566 10.07 38.5192 10.7354C37.374 11.4086 36.4841 12.3604 35.8728 13.5675C35.2692 14.7514 34.9597 16.1442 34.9597 17.7073C34.9597 19.3013 35.3157 20.7174 36.0043 21.9245C36.7008 23.1316 37.6448 24.0756 38.8132 24.7256C39.9739 25.3756 41.2584 25.7083 42.628 25.7083C43.8816 25.7083 45.0345 25.3911 46.0482 24.772C46.3732 24.5709 46.6672 24.3619 46.9303 24.1375L46.9613 25.4066H51.4106V10.0932H46.9303L46.9148 11.2693ZM46.1256 15.7109C46.4351 16.299 46.5898 16.9722 46.5898 17.7305V17.9394C46.5898 19.0537 46.2648 19.9281 45.6071 20.6013C44.9494 21.2745 44.1524 21.5995 43.1774 21.5995C42.0631 21.5995 41.2507 21.2668 40.6858 20.5858C40.09 19.8662 39.7959 18.9299 39.7959 17.7305C39.7959 16.5544 40.09 15.6258 40.6935 14.9062C41.2739 14.2252 42.0786 13.8925 43.1774 13.8925C43.8042 13.8925 44.3613 14.0473 44.8798 14.3645C45.4137 14.6895 45.816 15.1306 46.1256 15.7109Z" fill="black"/>
<path d="M62.8169 9.72949C60.9675 9.72949 59.4509 10.2789 58.2824 11.3699V10.0932H53.7557V31.032H58.3134L58.2902 24.3774C58.5997 24.6173 58.9479 24.8262 59.3193 25.0119C60.2711 25.4685 61.3931 25.7006 62.6698 25.7006C64.0472 25.7006 65.3085 25.3601 66.4382 24.6947C67.568 24.0292 68.4656 23.0697 69.1233 21.8471C69.7733 20.64 70.0983 19.2317 70.0983 17.6686C70.0983 15.1461 69.4173 13.1729 68.0787 11.8033C66.7323 10.4259 64.968 9.72949 62.8169 9.72949ZM61.9115 13.9235C63.049 13.9235 63.877 14.2485 64.4418 14.9139C65.0299 15.6026 65.324 16.5621 65.324 17.7615C65.324 18.9222 65.0299 19.8352 64.4264 20.5549C63.846 21.2358 63.0258 21.5685 61.9115 21.5685C61.2848 21.5685 60.7199 21.4138 60.2014 21.1043C59.6753 20.787 59.2652 20.3614 58.9479 19.7811C58.6306 19.2085 58.4681 18.543 58.4681 17.7924V17.5835C58.4681 16.8407 58.6306 16.1829 58.9402 15.6335C59.2574 15.0841 59.6675 14.674 60.1937 14.3723C60.7354 14.0705 61.2925 13.9235 61.9115 13.9235Z" fill="black"/>
<path d="M80.5755 9.72949C78.7262 9.72949 77.2095 10.2789 76.0411 11.3699V10.0932H71.5144V31.032H76.0721L76.0488 24.3774C76.3584 24.6173 76.7066 24.8262 77.078 25.0119C78.0298 25.4685 79.1518 25.7006 80.4285 25.7006C81.8059 25.7006 83.0672 25.3601 84.1969 24.6947C85.3266 24.0292 86.2242 23.0697 86.882 21.8471C87.5319 20.64 87.8569 19.2317 87.8569 17.6686C87.8569 15.1461 87.176 13.1729 85.8373 11.8033C84.4909 10.4259 82.7267 9.72949 80.5755 9.72949ZM79.6702 13.9235C80.8077 13.9235 81.6356 14.2485 82.2005 14.9139C82.7886 15.6026 83.0826 16.5621 83.0826 17.7615C83.0826 18.9222 82.7886 19.8352 82.185 20.5549C81.6047 21.2358 80.7845 21.5685 79.6702 21.5685C79.0434 21.5685 78.4786 21.4138 77.9601 21.1043C77.4339 20.787 77.0238 20.3614 76.7066 19.7811C76.3893 19.2085 76.2268 18.543 76.2268 17.7924V17.5835C76.2268 16.8407 76.3893 16.1829 76.6988 15.6335C77.0161 15.0841 77.4262 14.674 77.9524 14.3723C78.494 14.0705 79.0512 13.9235 79.6702 13.9235Z" fill="black"/>
<path d="M96.2758 9.72949C94.7901 9.72949 93.436 10.0622 92.2443 10.7122C91.0372 11.3699 90.0854 12.3217 89.4122 13.5443C88.739 14.7514 88.3986 16.1752 88.3986 17.7615C88.3986 19.1775 88.6849 20.493 89.2575 21.6846C89.8378 22.9072 90.7586 23.8977 91.989 24.6173C93.2038 25.3369 94.7205 25.7006 96.5002 25.7006C97.7924 25.7006 98.9144 25.5691 99.843 25.3137C100.787 25.0506 101.522 24.7411 102.095 24.3774L102.582 24.0679L101.058 20.5084L100.4 20.8644C99.9281 21.1197 99.3942 21.3209 98.8216 21.4757C98.2567 21.6227 97.5061 21.7001 96.593 21.7001C95.5871 21.7001 94.8133 21.4757 94.2871 21.0424C93.908 20.7251 93.6062 20.2376 93.3973 19.5876H103.163L103.224 18.9763C103.286 18.365 103.317 17.7692 103.317 17.2043C103.317 14.8984 102.737 13.0645 101.584 11.7568C100.392 10.4027 98.6126 9.72949 96.2758 9.72949ZM96.1829 13.8616C97.0573 13.8616 97.715 14.0627 98.1484 14.4574C98.4656 14.7437 98.6591 15.2389 98.721 15.9198H93.3508C93.7532 14.5193 94.674 13.8616 96.1829 13.8616Z" fill="black"/>
<path d="M117.005 10.7664C116.115 10.0777 114.862 9.72949 113.275 9.72949C112.03 9.72949 110.923 10.0467 109.987 10.6658C109.7 10.8515 109.445 11.0527 109.205 11.2771L109.19 10.1009H104.609V25.4066H109.259V17.8002C109.259 16.9799 109.437 16.2526 109.786 15.6568C110.142 15.0532 110.583 14.5889 111.109 14.2717C111.627 13.9621 112.13 13.8074 112.61 13.8074C113.655 13.8074 113.964 14.2407 114.111 14.5657C114.413 15.2544 114.568 16.446 114.568 18.1019V25.4066H119.218V18.0091C119.218 16.2448 119.079 14.7824 118.8 13.6526C118.498 12.43 117.895 11.4551 117.005 10.7664Z" fill="black"/>
<path d="M135.476 13.6985C134.818 12.4759 133.874 11.5009 132.667 10.789C131.46 10.0849 130.051 9.72119 128.481 9.72119C126.91 9.72119 125.494 10.0771 124.279 10.789C123.056 11.5009 122.112 12.4759 121.454 13.6985C120.804 14.9056 120.479 16.252 120.479 17.699C120.479 19.1615 120.812 20.5234 121.478 21.7305C122.143 22.9531 123.095 23.9281 124.318 24.6322C125.532 25.3364 126.933 25.7 128.488 25.7C130.044 25.7 131.444 25.3441 132.644 24.6322C133.851 23.9203 134.802 22.9453 135.46 21.7305C136.118 20.5234 136.458 19.1615 136.458 17.699C136.451 16.252 136.126 14.9134 135.476 13.6985ZM130.81 20.6162C130.26 21.3204 129.533 21.6608 128.573 21.6608C127.598 21.6608 126.832 21.3049 126.213 20.5853C125.571 19.8269 125.254 18.9061 125.254 17.7687C125.254 16.577 125.548 15.6252 126.151 14.8514C126.716 14.1318 127.451 13.7759 128.388 13.7759C129.37 13.7759 130.144 14.1318 130.74 14.8747C131.375 15.6562 131.684 16.6002 131.684 17.7687C131.684 18.9293 131.398 19.8656 130.81 20.6162Z" fill="black"/>
</g>
<g clip-path="url(#clip1)">
<path d="M122.993 3.44446V4.5918H124.14V3.44446H122.993Z" fill="#29D381"/>
<path d="M124.14 3.44446V4.5918H125.287V3.44446H124.14Z" fill="#28DD8B"/>
<path d="M125.289 2.29699V3.44434H126.436V2.29699H125.289Z" fill="#4BEF9D"/>
<path d="M125.289 3.44446V4.5918H126.436V3.44446H125.289Z" fill="#29D381"/>
<path d="M126.437 2.29699V3.44434H127.585V2.29699H126.437Z" fill="#28DD8B"/>
<path d="M127.584 2.29699V3.44434H128.731V2.29699H127.584Z" fill="#28DD8B"/>
<path d="M128.733 2.29699V3.44434H129.881V2.29699H128.733Z" fill="#28DD8B"/>
<path d="M129.88 3.44446V4.5918H131.027V3.44446H129.88Z" fill="#28DD8B"/>
<path d="M129.88 2.29699V3.44434H131.027V2.29699H129.88Z" fill="#4BEF9D"/>
<path d="M131.027 3.44446V4.5918H132.175V3.44446H131.027Z" fill="#28DD8B"/>
<path d="M140.212 5.74035V6.8877H141.359V5.74035H140.212Z" fill="#28DD8B"/>
<path d="M131.027 4.59289V5.74023H132.175V4.59289H131.027Z" fill="#28DD8B"/>
<path d="M129.88 4.59289V5.74023H131.027V4.59289H129.88Z" fill="#29D381"/>
<path d="M131.027 2.29699V3.44434H132.175V2.29699H131.027Z" fill="#28DD8B"/>
<path d="M131.027 1.14856V2.2959H132.175V1.14856H131.027Z" fill="#4BEF9D"/>
<path d="M129.88 1.14856V2.2959H131.027V1.14856H129.88Z" fill="#28DD8B"/>
<path d="M128.733 1.14856V2.2959H129.881V1.14856H128.733Z" fill="#28DD8B"/>
<path d="M128.733 3.44446V4.5918H129.881V3.44446H128.733Z" fill="#29D381"/>
<path d="M132.176 3.44446V4.5918H133.323V3.44446H132.176Z" fill="#28DD8B"/>
<path d="M132.176 4.59289V5.74023H133.323V4.59289H132.176Z" fill="#28DD8B"/>
<path d="M132.176 2.29699V3.44434H133.323V2.29699H132.176Z" fill="#4BEF9D"/>
<path d="M133.323 3.44446V4.5918H134.471V3.44446H133.323Z" fill="#28DD8B"/>
<path d="M133.323 4.59289V5.74023H134.471V4.59289H133.323Z" fill="#28DD8B"/>
<path d="M133.323 5.74035V6.8877H134.471V5.74035H133.323Z" fill="#28DD8B"/>
<path d="M134.472 5.74035V6.8877H135.62V5.74035H134.472Z" fill="#28DD8B"/>
<path d="M135.62 5.74035V6.8877H136.767V5.74035H135.62Z" fill="#28DD8B"/>
<path d="M136.769 5.74035V6.8877H137.916V5.74035H136.769Z" fill="#28DD8B"/>
<path d="M137.916 5.74035V6.8877H139.063V5.74035H137.916Z" fill="#28DD8B"/>
<path d="M139.063 5.74035V6.8877H140.21V5.74035H139.063Z" fill="#28DD8B"/>
<path d="M133.323 2.29699V3.44434H134.471V2.29699H133.323Z" fill="#28DD8B"/>
<path d="M134.472 3.44446V4.5918H135.62V3.44446H134.472Z" fill="#28DD8B"/>
<path d="M134.472 4.59289V5.74023H135.62V4.59289H134.472Z" fill="#28DD8B"/>
<path d="M134.472 2.29699V3.44434H135.62V2.29699H134.472Z" fill="#4BEF9D"/>
<path d="M134.472 1.14856V2.2959H135.62V1.14856H134.472Z" fill="#28DD8B"/>
<path d="M135.62 3.44446V4.5918H136.767V3.44446H135.62Z" fill="#28DD8B"/>
<path d="M135.62 4.59289V5.74023H136.767V4.59289H135.62Z" fill="#28DD8B"/>
<path d="M135.62 2.29699V3.44434H136.767V2.29699H135.62Z" fill="#4BEF9D"/>
<path d="M135.62 1.14856V2.2959H136.767V1.14856H135.62Z" fill="#4BEF9D"/>
<path d="M136.769 3.44446V4.5918H137.916V3.44446H136.769Z" fill="#28DD8B"/>
<path d="M136.769 4.59289V5.74023H137.916V4.59289H136.769Z" fill="#28DD8B"/>
<path d="M136.769 2.29699V3.44434H137.916V2.29699H136.769Z" fill="#4BEF9D"/>
<path d="M137.916 2.29699V3.44434H139.063V2.29699H137.916Z" fill="#28DD8B"/>
<path d="M137.916 1.14856V2.2959H139.063V1.14856H137.916Z" fill="#4BEF9D"/>
<path d="M137.916 0.00109673V1.14844H139.063V0.00109673H137.916Z" fill="#28DD8B"/>
<path d="M136.769 0.00109673V1.14844H137.916V0.00109673H136.769Z" fill="#28DD8B"/>
<path d="M135.62 0.00109673V1.14844H136.767V0.00109673H135.62Z" fill="#28DD8B"/>
<path d="M134.472 0.00109673V1.14844H135.62V0.00109673H134.472Z" fill="#28DD8B"/>
<path d="M133.323 0.00109673V1.14844H134.471V0.00109673H133.323Z" fill="#28DD8B"/>
<path d="M132.176 0.00109673V1.14844H133.323V0.00109673H132.176Z" fill="#28DD8B"/>
<path d="M131.027 0.00109673V1.14844H132.175V0.00109673H131.027Z" fill="#28DD8B"/>
<path d="M136.769 1.14856V2.2959H137.916V1.14856H136.769Z" fill="#28DD8B"/>
<path d="M137.916 3.44446V4.5918H139.063V3.44446H137.916Z" fill="#28DD8B"/>
<path d="M137.916 4.59289V5.74023H139.063V4.59289H137.916Z" fill="#28DD8B"/>
<path d="M139.063 3.44446V4.5918H140.21V3.44446H139.063Z" fill="#28DD8B"/>
<path d="M139.063 2.29699V3.44434H140.21V2.29699H139.063Z" fill="#4BEF9D"/>
<path d="M139.063 1.14856V2.2959H140.21V1.14856H139.063Z" fill="#4BEF9D"/>
<path d="M140.212 1.14856V2.2959H141.359V1.14856H140.212Z" fill="#4BEF9D"/>
<path d="M141.359 1.14856V2.2959H142.506V1.14856H141.359Z" fill="#4BEF9D"/>
<path d="M140.212 3.44446V4.5918H141.359V3.44446H140.212Z" fill="#28DD8B"/>
<path d="M140.212 4.59289V5.74023H141.359V4.59289H140.212Z" fill="#28DD8B"/>
<path d="M140.212 2.29699V3.44434H141.359V2.29699H140.212Z" fill="#28DD8B"/>
<path d="M141.359 3.44446V4.5918H142.506V3.44446H141.359Z" fill="#28DD8B"/>
<path d="M141.359 4.59289V5.74023H142.506V4.59289H141.359Z" fill="#28DD8B"/>
<path d="M141.359 5.74035V6.8877H142.506V5.74035H141.359Z" fill="#28DD8B"/>
<path d="M140.212 6.88781V8.03516H141.359V6.88781H140.212Z" fill="#28DD8B"/>
<path d="M139.063 4.59289V5.74023H140.21V4.59289H139.063Z" fill="#28DD8B"/>
<path d="M141.359 6.88781V8.03516H142.506V6.88781H141.359Z" fill="#28DD8B"/>
<path d="M141.359 2.29699V3.44434H142.506V2.29699H141.359Z" fill="#4BEF9D"/>
<path d="M142.507 3.44446V4.5918H143.654V3.44446H142.507Z" fill="#4BEF9D"/>
<path d="M142.507 4.59289V5.74023H143.654V4.59289H142.507Z" fill="#28DD8B"/>
<path d="M142.507 5.74035V6.8877H143.654V5.74035H142.507Z" fill="#28DD8B"/>
<path d="M143.655 3.44446V4.5918H144.802V3.44446H143.655Z" fill="#28DD8B"/>
<path d="M143.655 4.59289V5.74023H144.802V4.59289H143.655Z" fill="#4BEF9D"/>
<path d="M143.655 5.74035V6.8877H144.802V5.74035H143.655Z" fill="#28DD8B"/>
<path d="M143.655 6.88781V8.03516H144.802V6.88781H143.655Z" fill="#28DD8B"/>
<path d="M144.802 5.74035V6.8877H145.95V5.74035H144.802Z" fill="#4BEF9D"/>
<path d="M144.802 6.88781V8.03516H145.95V6.88781H144.802Z" fill="#28DD8B"/>
<path d="M144.802 8.03625V9.18359H145.95V8.03625H144.802Z" fill="#28DD8B"/>
<path d="M144.802 9.18371V10.3311H145.95V9.18371H144.802Z" fill="#28DD8B"/>
<path d="M144.802 10.3321V11.4795H145.95V10.3321H144.802Z" fill="#28DD8B"/>
<path d="M143.655 10.3321V11.4795H144.802V10.3321H143.655Z" fill="#28DD8B"/>
<path d="M143.655 9.18371V10.3311H144.802V9.18371H143.655Z" fill="#28DD8B"/>
<path d="M143.655 8.03625V9.18359H144.802V8.03625H143.655Z" fill="#28DD8B"/>
<path d="M142.507 6.88781V8.03516H143.654V6.88781H142.507Z" fill="#28DD8B"/>
<path d="M142.507 8.03625V9.18359H143.654V8.03625H142.507Z" fill="#28DD8B"/>
<path d="M145.951 6.88781V8.03516H147.098V6.88781H145.951Z" fill="#4BEF9D"/>
<path d="M145.951 8.03625V9.18359H147.098V8.03625H145.951Z" fill="#28DD8B"/>
<path d="M145.951 9.18371V10.3311H147.098V9.18371H145.951Z" fill="#28DD8B"/>
<path d="M145.951 10.3321V11.4795H147.098V10.3321H145.951Z" fill="#4BEF9D"/>
<path d="M144.802 11.4796V12.627H145.95V11.4796H144.802Z" fill="#28DD8B"/>
<path d="M143.655 11.4796V12.627H144.802V11.4796H143.655Z" fill="#28DD8B"/>
<path d="M142.507 13.3346V14.4819H143.654V13.3346H142.507Z" fill="#29D381"/>
<path d="M143.655 12.6285V13.7759H144.802V12.6285H143.655Z" fill="#28DD8B"/>
<path d="M142.507 12.1871V13.3345H143.654V12.1871H142.507Z" fill="#29D381"/>
<path d="M144.802 4.59289V5.74023H145.95V4.59289H144.802Z" fill="#28DD8B"/>
<path d="M142.507 2.29699V3.44434H143.654V2.29699H142.507Z" fill="#28DD8B"/>
<path d="M132.176 1.14856V2.2959H133.323V1.14856H132.176Z" fill="#4BEF9D"/>
<path d="M133.323 1.14856V2.2959H134.471V1.14856H133.323Z" fill="#4BEF9D"/>
</g>
<defs>
<clipPath id="clip0">
<rect width="150" height="32.4761" fill="white" transform="translate(0 0.505859)"/>
</clipPath>
<clipPath id="clip1">
<rect width="14.482" height="24.1057" fill="white" transform="translate(122.992 14.4819) rotate(-90)"/>
</clipPath>
</defs>
</svg>
