<svg width="50" height="50" viewBox="0 0 50 50" fill="none" xmlns="http://www.w3.org/2000/svg">
<path d="M37.8926 25.3047C38.369 24.3503 39.4395 23.709 40.556 23.709C44.1093 23.709 47 20.8133 47 17.2537V13.6615L36.2021 10.9797L32.6068 3.77648L27.6822 16.11C27.0914 17.589 25.6825 18.5447 24.0923 18.5447H20.3835L4.86578 3L3.0433 4.82568L16.7383 18.5447H10.117L3 10.5492L5.04303 23.7406C5.41296 26.0563 5.10748 28.534 4.16049 30.9065C3.39679 32.8189 3.0094 34.8333 3.0094 36.893V44.3659H7.67252L11.7589 36.1784C12.3981 34.8978 13.8224 34.0373 15.3032 34.0373H21.8186C23.2927 34.0373 24.6176 34.8578 25.2769 36.1784L29.3633 44.3659H33.8294L35.0701 36.9088L45.144 47L46.9664 45.1743L35.5908 33.7787L36.0624 30.9428C36.3891 28.9806 37.0047 27.084 37.8926 25.3047ZM31.6457 41.7836H30.9565L27.5822 35.0236C26.4838 32.8226 24.2752 31.4553 21.8186 31.4553H15.3028C12.8315 31.4553 10.5353 32.8559 9.45337 35.0236L6.07932 41.7836H5.58719V36.893C5.58719 35.1632 5.91214 33.4717 6.55365 31.8656C7.67386 29.06 8.03171 26.1091 7.58926 23.3388L6.88531 18.7939L8.96158 21.127H19.3157L32.83 34.6648L31.6457 41.7836ZM22.961 21.127H24.0919C26.7422 21.127 29.0908 19.534 30.075 17.0691L32.8683 10.0741L34.4279 13.1991L44.4225 15.6816V17.2537C44.4225 19.3894 42.688 21.127 40.556 21.127C38.4539 21.127 36.5035 22.3138 35.5871 24.1502C34.584 26.1595 33.8888 28.302 33.5199 30.5181L33.3507 31.535L22.961 21.127Z" fill="black"/>
</svg>
