<svg width="21" height="21" viewBox="0 0 21 21" fill="none" xmlns="http://www.w3.org/2000/svg">
<path d="M8.39506 0C3.77216 0 0 3.76461 0 8.38834C0 13.0121 3.77216 16.7849 8.39506 16.7849C10.3279 16.7849 12.1056 16.1197 13.5259 15.0142L19.1916 20.6747C19.288 20.7758 19.4036 20.8566 19.5316 20.9124C19.6596 20.9681 19.7974 20.9978 19.937 20.9997C20.0766 21.0015 20.2152 20.9754 20.3446 20.923C20.474 20.8706 20.5916 20.793 20.6906 20.6945C20.7896 20.596 20.868 20.4788 20.9211 20.3497C20.9742 20.2206 21.001 20.0821 21 19.9424C20.9989 19.8028 20.97 19.6648 20.9149 19.5365C20.8599 19.4081 20.7797 19.2921 20.6793 19.1952L15.0115 13.5263C16.1165 12.1037 16.7819 10.3227 16.7819 8.38834C16.7819 3.76461 13.018 0 8.39506 0ZM8.39506 2.09866C11.884 2.09866 14.6837 4.89878 14.6837 8.38834C14.6837 11.8779 11.884 14.6864 8.39506 14.6864C4.90614 14.6864 2.1003 11.8779 2.1003 8.38834C2.1003 4.89878 4.90614 2.09866 8.39506 2.09866Z" fill="#767676"/>
</svg>
