<svg width="100" height="100" viewBox="0 0 100 100" fill="none" xmlns="http://www.w3.org/2000/svg">
<path d="M98.5352 79.848H96.8687V70.3535C96.8687 69.5445 96.2129 68.8887 95.4039 68.8887C94.5949 68.8887 93.9391 69.5445 93.9391 70.3535V71.332C85.4125 61.533 82.7619 51.3205 82.7338 51.2092C82.6594 50.9129 82.4941 50.6461 82.2594 50.4474C71.8348 41.6267 63.9463 33.2342 59.1645 27.7471C53.9797 21.7977 51.2271 17.8855 51.2 17.8467C50.9258 17.4555 50.4779 17.2223 50 17.2223C49.5221 17.2223 49.0742 17.4553 48.8 17.8467C48.7729 17.8855 46.0203 21.7977 40.8355 27.7471C36.0537 33.2342 28.1652 41.6266 17.7406 50.4474C17.5059 50.6461 17.3404 50.9129 17.266 51.2092C17.2379 51.3205 14.5875 61.533 6.06074 71.332V70.3535C6.06074 69.5445 5.40488 68.8887 4.5959 68.8887C3.78691 68.8887 3.13105 69.5445 3.13105 70.3535V79.8482H1.46484C0.655859 79.8482 0 80.5041 0 81.3131C0 82.1221 0.655859 82.7779 1.46484 82.7779H98.5352C99.3441 82.7779 100 82.1221 100 81.3131C100 80.5041 99.3441 79.848 98.5352 79.848ZM34.3289 79.8482C37.8293 75.4373 45.0797 65.44 50 52.7508C54.9203 65.44 62.1707 75.4373 65.6711 79.8482H34.3289ZM69.4611 79.848C67.3016 77.2842 57.3498 64.951 51.8037 49.1781C51.5814 48.5459 51.4645 47.8812 51.4645 47.2111V39.1018C51.4645 38.2996 50.8465 37.6002 50.0447 37.5762C49.2152 37.5512 48.5348 38.2164 48.5348 39.0404V47.2113C48.5348 47.8814 48.4178 48.5461 48.1955 49.1783C42.6494 64.9518 32.6973 77.2851 30.5381 79.8482H15.7043L16.4164 75.3387C16.5414 74.5465 16.0396 73.7594 15.2516 73.6111C14.4359 73.4576 13.6605 74.0082 13.532 74.8221L12.7385 79.8484H6.06094V75.6514C10.21 71.4115 13.2275 66.9951 15.377 63.1367L14.5303 68.4996C14.4053 69.2916 14.9068 70.0785 15.6949 70.2267C16.5105 70.3803 17.2861 69.8299 17.4146 69.016L20.049 52.3308C30.4277 43.5041 38.2898 35.1305 43.0805 29.6299C46.4012 25.8174 48.7139 22.8652 49.9998 21.1607C51.2857 22.8652 53.5984 25.8174 56.9191 29.6299C61.71 35.1305 69.5721 43.5041 79.9506 52.3308L84.2953 79.848H69.4611ZM93.9391 79.848H87.2617L84.623 63.1369C86.7725 66.9953 89.79 71.4117 93.9391 75.6514V79.848Z" fill="#484848"/>
<path d="M50 28.1816C49.191 28.1816 48.5352 28.8375 48.5352 29.6465V32.7779C48.5352 33.5869 49.191 34.2428 50 34.2428C50.809 34.2428 51.4648 33.5869 51.4648 32.7779V29.6465C51.4648 28.8377 50.809 28.1816 50 28.1816Z" fill="#484848"/>
</svg>
